<svg viewBox="-30.0 -30.0 506.527112 518.225271" xmlns="http://www.w3.org/2000/svg">
  <g transform="translate(-81.108007,548.000000) scale(0.100000,-0.100000)" fill="white">
    <path d="M2957 5303 c-47 -98 -165 -340 -263 -538 -97 -198 -205 -418 -239
-490 -34 -71 -131 -269 -215 -440 -84 -170 -190 -386 -235 -480 -45 -93 -135
-278 -200 -410 -109 -224 -160 -327 -445 -910 -59 -121 -167 -341 -240 -490
-73 -148 -172 -352 -221 -452 l-88 -183 54 0 c44 0 56 4 65 20 43 80 344 399
551 584 386 345 755 562 1439 846 478 199 798 402 935 595 102 143 140 271
133 448 -7 157 -30 217 -271 707 -112 228 -238 487 -280 575 -111 237 -385
795 -390 795 -2 0 -42 -80 -90 -177z m269 -389 c96 -196 192 -393 213 -438 22
-44 107 -220 191 -391 271 -552 265 -535 264 -720 0 -121 -2 -136 -32 -215
-57 -151 -162 -265 -367 -399 -127 -82 -338 -192 -530 -274 -619 -266 -889
-404 -1170 -600 -204 -142 -441 -345 -612 -525 -51 -53 -93 -94 -93 -91 0 7
118 253 300 624 67 138 151 309 185 380 34 72 141 290 237 485 96 195 412 842
703 1438 291 595 530 1082 533 1082 2 0 82 -160 178 -356z"/>
    <path d="M3930 2724 c-84 -23 -156 -63 -226 -127 -120 -110 -239 -303 -290
-472 -24 -80 -28 -107 -28 -235 -1 -167 16 -245 83 -378 98 -196 234 -319 475
-432 224 -106 476 -162 801 -179 167 -8 519 -1 531 12 4 3 -23 66 -59 139 -35
73 -139 288 -230 478 -91 190 -184 383 -207 430 -23 47 -73 151 -110 231 -124
265 -205 381 -323 462 -97 67 -158 87 -267 86 -52 0 -120 -7 -150 -15z m311
-112 c131 -67 200 -157 339 -446 48 -100 140 -289 205 -421 208 -428 357 -746
351 -752 -12 -12 -241 -15 -396 -4 -333 23 -545 71 -765 176 -245 116 -405
285 -477 500 -19 60 -23 90 -23 210 0 164 13 222 82 365 87 183 221 332 338
378 71 28 88 30 191 29 81 -2 97 -5 155 -35z"/>
  </g>
</svg>
